<svg width="461" height="96" viewBox="0 0 461 96" fill="none" xmlns="http://www.w3.org/2000/svg">
<g filter="url(#filter0_i)">
<path d="M1.5 71.4C0.633334 57.6667 0.2 45.1 0.2 33.7C0.2 22.2333 0.566667 11.8333 1.3 2.49999L14.6 3.7C13.6 15.1667 13.1 26.1333 13.1 36.6C13.1 47.0667 13.2667 54.7667 13.6 59.7C16 59.3667 21.9 58.7 31.3 57.7L33.3 69.3C28.3 69.9 21.2333 70.9 12.1 72.3L1.5 71.4ZM45.8695 54C45.8695 61.5333 47.5362 65.3 50.8695 65.3C52.3362 65.3 53.5695 63.2 54.5695 59C55.5695 54.7333 56.0695 50.6667 56.0695 46.8C56.0695 38.2667 54.6695 34 51.8695 34C50.0695 34 48.6029 36.3 47.4695 40.9C46.4029 45.4333 45.8695 49.8 45.8695 54ZM34.1695 53.1C34.1695 46.9 35.4362 40.8333 37.9695 34.9C39.3029 31.9 41.1695 29.4667 43.5695 27.6C46.0362 25.6667 48.7695 24.7 51.7695 24.7C54.7695 24.7 57.3362 25.4 59.4695 26.8C61.6695 28.1333 63.3362 29.9333 64.4695 32.2C66.6695 36.6667 67.7695 41.5333 67.7695 46.8C67.7695 54.0667 66.2695 60.5333 63.2695 66.2C60.3362 71.8 56.2029 74.6 50.8695 74.6C39.7362 74.6 34.1695 67.4333 34.1695 53.1ZM108.486 73.2L99.0859 72.4C97.4193 65.0667 95.9193 58.2667 94.5859 52C92.9193 57.9333 90.7193 65.1 87.9859 73.5L77.5859 72.4C73.5193 52.5333 71.0193 36.9667 70.0859 25.7L81.4859 26.8C82.5526 41.4 83.6193 52.5333 84.6859 60.2C87.0859 50.7333 89.4859 39.8667 91.8859 27.6L99.5859 28.3C100.386 39.0333 101.619 48.8333 103.286 57.7C105.619 48.5667 108.186 36.7 110.986 22.1L121.786 23.1C118.853 37.1667 114.419 53.8667 108.486 73.2ZM147.048 14.5C144.115 14.5 141.548 18.1333 139.348 25.4C137.148 32.6 136.048 39 136.048 44.6C136.048 56.3333 139.115 62.2 145.248 62.2C146.982 62.2 148.482 61.4667 149.748 60C151.082 58.4667 152.015 56.9 152.548 55.3C153.148 53.7 153.848 51.5 154.648 48.7L167.348 49.7C165.615 57.9 163.015 64.1667 159.548 68.5C156.148 72.8333 151.382 75 145.248 75C138.048 75 132.482 72.3 128.548 66.9C124.682 61.4333 122.748 54.5 122.748 46.1C122.748 36.3 124.682 26.7667 128.548 17.5C130.415 12.9 133.015 9.13333 136.348 6.19999C139.748 3.2 143.615 1.7 147.948 1.7C153.282 1.7 157.148 3.46666 159.548 7C160.748 8.73333 161.715 10.5 162.448 12.3C163.248 14.1 163.815 16.4 164.148 19.2C164.748 23.6667 165.115 28.4667 165.248 33.6L152.348 32.4C152.348 23.8 151.548 18.4 149.948 16.2C149.215 15.0667 148.248 14.5 147.048 14.5ZM192.291 35.9C189.491 35.9 187.391 39.4333 185.991 46.5C186.124 51.1667 186.191 55.6333 186.191 59.9C186.191 64.1667 186.057 68.9667 185.791 74.3L174.191 73.3C174.391 63.5 174.491 58.1 174.491 57.1C174.491 44.7667 173.891 35.3333 172.691 28.8L180.191 29.6C180.657 31.5333 181.191 33.2333 181.791 34.7C185.057 27.7 188.357 24.2 191.691 24.2C194.424 24.2 196.824 25.4 198.891 27.8L196.291 37C195.224 36.2667 193.891 35.9 192.291 35.9ZM203.069 42.5C204.069 37.3 205.969 32.9 208.769 29.3C211.569 25.6333 215.235 23.8 219.769 23.8C224.302 23.8 227.635 25.7 229.769 29.5C231.969 33.2333 233.069 38.5667 233.069 45.5C233.069 52.4333 232.669 62 231.869 74.2L223.469 73.5L222.669 70.3C219.535 72.1 216.335 73 213.069 73C209.802 73 207.102 71.9333 204.969 69.8C202.835 67.6 201.769 64.4667 201.769 60.4C201.769 56.3333 203.769 52.8333 207.769 49.9C211.835 46.9667 216.502 45.4333 221.769 45.3V42.6C221.769 37.3333 220.502 34.7 217.969 34.7C216.702 34.7 215.535 35.6 214.469 37.4C213.469 39.1333 212.735 41.1333 212.269 43.4L203.069 42.5ZM211.969 61C211.969 63.1333 213.235 64.2 215.769 64.2C217.502 64.2 219.335 63.8 221.269 63L221.469 54.6C218.335 54.8667 215.969 55.6667 214.369 57C212.769 58.2667 211.969 59.6 211.969 61ZM242.934 25.9C248.267 24.8333 253.167 24.3 257.634 24.3C262.167 24.3 265.767 24.4 268.434 24.6L270.034 33.8C264.167 42 258.367 51.2667 252.634 61.6H257.434C261.767 61.6 266.034 61.8333 270.234 62.3L268.934 71.5C264.8 71.1 261.067 70.9 257.734 70.9C254.4 70.9 249.7 71.4 243.634 72.4L241.834 62.1C249.367 48.1667 254.934 38.7667 258.534 33.9C252.8 34.3667 248.234 35 244.834 35.8L242.934 25.9ZM300.509 21.9L310.109 27.5C304.575 44.6333 298.909 67.3667 293.109 95.7L282.109 94.7C283.175 89.4333 284.942 82.1667 287.409 72.9C281.009 60.6333 276.975 45.1667 275.309 26.5L286.509 27.6C287.509 39.8667 289.109 50.3333 291.309 59C294.375 44.7333 297.442 32.3667 300.509 21.9ZM316.706 5.5C324.506 3.1 331.54 1.9 337.806 1.9C344.14 1.9 349.506 3.6 353.906 7C358.306 10.3333 360.506 14.4667 360.506 19.4C360.506 26.8 356.373 32.6667 348.106 37C355.84 40.1333 359.706 45.3667 359.706 52.7C359.706 58.1 356.873 62.9333 351.206 67.2C345.54 71.4 339.606 73.5 333.406 73.5C332.606 73.5 326.906 73.0333 316.306 72.1C317.24 57.7667 317.706 45.7 317.706 35.9C317.706 26.1 317.373 15.9667 316.706 5.5ZM347.006 20.8C347.006 18.8 346.006 17.1333 344.006 15.8C342.073 14.4 339.973 13.7 337.706 13.7C335.506 13.7 333.14 14.1 330.606 14.9C330.873 22.9 331.006 28.9333 331.006 33C334.073 32.7333 337.506 31.3667 341.306 28.9C345.106 26.3667 347.006 23.6667 347.006 20.8ZM335.606 61.3C337.806 61.3 340.14 60.4333 342.606 58.7C345.073 56.9 346.306 54.8667 346.306 52.6C346.306 50.2667 344.873 48.2333 342.006 46.5C339.14 44.7667 335.44 43.7 330.906 43.3C330.773 51.1667 330.64 57.0667 330.506 61C331.706 61.2 333.406 61.3 335.606 61.3ZM391.95 28.3C392.817 25.0333 393.25 22.3 393.25 20.1C393.25 17.9 392.65 16.1 391.45 14.7C390.25 13.2333 388.683 12.5 386.75 12.5C384.883 12.5 383.317 13.4333 382.05 15.3C380.783 17.1667 380.15 19.3 380.15 21.7C380.15 26.3667 382.817 30.3667 388.15 33.7C393.483 37.1667 397.117 39.6667 399.05 41.2C400.983 42.7333 402.35 44.1333 403.15 45.4C405.15 48.6667 406.15 52.0333 406.15 55.5C406.15 61.5 404.117 66.3 400.05 69.9C396.05 73.4333 391.517 75.2 386.45 75.2C380.45 75.2 375.417 72.6667 371.35 67.6C368.417 63.9333 365.717 59.3667 363.25 53.9L372.95 49.2C374.483 53.2 376.383 56.6 378.65 59.4C380.983 62.1333 383.45 63.5 386.05 63.5C387.717 63.5 389.217 62.9667 390.55 61.9C391.883 60.8333 392.55 59.2333 392.55 57.1C392.55 54.9 391.717 52.8667 390.05 51C388.383 49.1333 386.15 47.2333 383.35 45.3C380.55 43.3667 378.383 41.8 376.85 40.6C375.317 39.3333 373.617 37.7333 371.75 35.8C368.217 32.0667 366.45 27.3 366.45 21.5C366.45 15.6333 368.483 10.7333 372.55 6.8C376.617 2.8 381.45 0.799999 387.05 0.799999C392.65 0.799999 397.35 2.96667 401.15 7.3C405.017 11.6333 406.95 16.1 406.95 20.7C406.95 25.2333 406.083 29.1333 404.35 32.4L391.95 28.3ZM416.511 5.5C424.311 3.1 431.344 1.9 437.611 1.9C443.944 1.9 449.311 3.6 453.711 7C458.111 10.3333 460.311 14.4667 460.311 19.4C460.311 26.8 456.178 32.6667 447.911 37C455.644 40.1333 459.511 45.3667 459.511 52.7C459.511 58.1 456.678 62.9333 451.011 67.2C445.344 71.4 439.411 73.5 433.211 73.5C432.411 73.5 426.711 73.0333 416.111 72.1C417.044 57.7667 417.511 45.7 417.511 35.9C417.511 26.1 417.178 15.9667 416.511 5.5ZM446.811 20.8C446.811 18.8 445.811 17.1333 443.811 15.8C441.878 14.4 439.778 13.7 437.511 13.7C435.311 13.7 432.944 14.1 430.411 14.9C430.678 22.9 430.811 28.9333 430.811 33C433.878 32.7333 437.311 31.3667 441.111 28.9C444.911 26.3667 446.811 23.6667 446.811 20.8ZM435.411 61.3C437.611 61.3 439.944 60.4333 442.411 58.7C444.878 56.9 446.111 54.8667 446.111 52.6C446.111 50.2667 444.678 48.2333 441.811 46.5C438.944 44.7667 435.244 43.7 430.711 43.3C430.578 51.1667 430.444 57.0667 430.311 61C431.511 61.2 433.211 61.3 435.411 61.3Z" fill="black"/>
</g>
<defs>
<filter id="filter0_i" x="0.199951" y="0.800003" width="460.111" height="98.9" filterUnits="userSpaceOnUse" color-interpolation-filters="sRGB">
<feFlood flood-opacity="0" result="BackgroundImageFix"/>
<feBlend mode="normal" in="SourceGraphic" in2="BackgroundImageFix" result="shape"/>
<feColorMatrix in="SourceAlpha" type="matrix" values="0 0 0 0 0 0 0 0 0 0 0 0 0 0 0 0 0 0 127 0" result="hardAlpha"/>
<feOffset dy="4"/>
<feGaussianBlur stdDeviation="2"/>
<feComposite in2="hardAlpha" operator="arithmetic" k2="-1" k3="1"/>
<feColorMatrix type="matrix" values="0 0 0 0 0 0 0 0 0 0 0 0 0 0 0 0 0 0 0.25 0"/>
<feBlend mode="normal" in2="shape" result="effect1_innerShadow"/>
</filter>
</defs>
</svg>
